%TF.GenerationSoftware,KiCad,Pcbnew,8.0.5*%
%TF.CreationDate,2025-03-15T22:57:07+02:00*%
%TF.ProjectId,MOSFET Controller,4d4f5346-4554-4204-936f-6e74726f6c6c,rev?*%
%TF.SameCoordinates,Original*%
%TF.FileFunction,Soldermask,Top*%
%TF.FilePolarity,Negative*%
%FSLAX46Y46*%
G04 Gerber Fmt 4.6, Leading zero omitted, Abs format (unit mm)*
G04 Created by KiCad (PCBNEW 8.0.5) date 2025-03-15 22:57:07*
%MOMM*%
%LPD*%
G01*
G04 APERTURE LIST*
G04 Aperture macros list*
%AMRoundRect*
0 Rectangle with rounded corners*
0 $1 Rounding radius*
0 $2 $3 $4 $5 $6 $7 $8 $9 X,Y pos of 4 corners*
0 Add a 4 corners polygon primitive as box body*
4,1,4,$2,$3,$4,$5,$6,$7,$8,$9,$2,$3,0*
0 Add four circle primitives for the rounded corners*
1,1,$1+$1,$2,$3*
1,1,$1+$1,$4,$5*
1,1,$1+$1,$6,$7*
1,1,$1+$1,$8,$9*
0 Add four rect primitives between the rounded corners*
20,1,$1+$1,$2,$3,$4,$5,0*
20,1,$1+$1,$4,$5,$6,$7,0*
20,1,$1+$1,$6,$7,$8,$9,0*
20,1,$1+$1,$8,$9,$2,$3,0*%
G04 Aperture macros list end*
%ADD10RoundRect,0.200000X-0.200000X-0.275000X0.200000X-0.275000X0.200000X0.275000X-0.200000X0.275000X0*%
%ADD11RoundRect,0.125000X0.125000X-0.125000X0.125000X0.125000X-0.125000X0.125000X-0.125000X-0.125000X0*%
%ADD12RoundRect,0.200000X0.275000X-0.200000X0.275000X0.200000X-0.275000X0.200000X-0.275000X-0.200000X0*%
%ADD13RoundRect,0.200000X-0.275000X0.200000X-0.275000X-0.200000X0.275000X-0.200000X0.275000X0.200000X0*%
%ADD14RoundRect,0.125000X-0.125000X0.125000X-0.125000X-0.125000X0.125000X-0.125000X0.125000X0.125000X0*%
%ADD15C,2.200000*%
%ADD16RoundRect,0.200000X0.200000X0.275000X-0.200000X0.275000X-0.200000X-0.275000X0.200000X-0.275000X0*%
%ADD17RoundRect,0.198500X-0.508500X-0.198500X0.508500X-0.198500X0.508500X0.198500X-0.508500X0.198500X0*%
%ADD18C,2.454000*%
%ADD19RoundRect,0.150000X0.450000X0.150000X-0.450000X0.150000X-0.450000X-0.150000X0.450000X-0.150000X0*%
%ADD20RoundRect,0.100000X0.100000X-0.225000X0.100000X0.225000X-0.100000X0.225000X-0.100000X-0.225000X0*%
%ADD21RoundRect,0.198500X0.508500X0.198500X-0.508500X0.198500X-0.508500X-0.198500X0.508500X-0.198500X0*%
%ADD22RoundRect,0.150000X-0.450000X-0.150000X0.450000X-0.150000X0.450000X0.150000X-0.450000X0.150000X0*%
%ADD23RoundRect,0.140000X0.170000X-0.140000X0.170000X0.140000X-0.170000X0.140000X-0.170000X-0.140000X0*%
%ADD24RoundRect,0.140000X-0.170000X0.140000X-0.170000X-0.140000X0.170000X-0.140000X0.170000X0.140000X0*%
%ADD25R,1.700000X1.700000*%
%ADD26O,1.700000X1.700000*%
%ADD27R,1.600000X0.300000*%
%ADD28R,1.750000X0.950000*%
%ADD29R,1.750000X3.200000*%
%ADD30RoundRect,0.150000X-0.150000X0.512500X-0.150000X-0.512500X0.150000X-0.512500X0.150000X0.512500X0*%
%ADD31RoundRect,0.125000X0.125000X0.125000X-0.125000X0.125000X-0.125000X-0.125000X0.125000X-0.125000X0*%
%ADD32RoundRect,0.087500X0.087500X-0.537500X0.087500X0.537500X-0.087500X0.537500X-0.087500X-0.537500X0*%
%ADD33R,0.650000X1.525000*%
%ADD34RoundRect,0.250000X0.725000X-0.600000X0.725000X0.600000X-0.725000X0.600000X-0.725000X-0.600000X0*%
%ADD35O,1.950000X1.700000*%
G04 APERTURE END LIST*
D10*
%TO.C,R23*%
X124175000Y-86410264D03*
X125825000Y-86410264D03*
%TD*%
D11*
%TO.C,AO3403A5*%
X172070000Y-124665000D03*
X173970000Y-124665000D03*
X172992500Y-122775000D03*
%TD*%
D12*
%TO.C,R29*%
X181250000Y-117325000D03*
X181250000Y-115675000D03*
%TD*%
D13*
%TO.C,R34*%
X187230000Y-93585000D03*
X187230000Y-95235000D03*
%TD*%
D14*
%TO.C,AO3403A7*%
X142200000Y-113005000D03*
X140300000Y-113005000D03*
X141277500Y-114895000D03*
%TD*%
D15*
%TO.C,H3*%
X193500000Y-127500000D03*
%TD*%
D16*
%TO.C,R27*%
X148325000Y-124500000D03*
X146675000Y-124500000D03*
%TD*%
%TO.C,R43*%
X112825000Y-105000000D03*
X111175000Y-105000000D03*
%TD*%
D17*
%TO.C,Q8*%
X167245000Y-124300000D03*
X167245000Y-126200000D03*
X169755000Y-125250000D03*
%TD*%
D10*
%TO.C,R36*%
X181350000Y-91750000D03*
X183000000Y-91750000D03*
%TD*%
D16*
%TO.C,R48*%
X173505000Y-73800000D03*
X171855000Y-73800000D03*
%TD*%
%TO.C,R14*%
X170825000Y-117000000D03*
X169175000Y-117000000D03*
%TD*%
%TO.C,R28*%
X185575000Y-113250000D03*
X183925000Y-113250000D03*
%TD*%
D11*
%TO.C,AO3403A1*%
X129800000Y-123185000D03*
X131700000Y-123185000D03*
X130722500Y-121295000D03*
%TD*%
D10*
%TO.C,R12*%
X124175000Y-106512822D03*
X125825000Y-106512822D03*
%TD*%
D13*
%TO.C,R63*%
X100120000Y-99495000D03*
X100120000Y-101145000D03*
%TD*%
D18*
%TO.C,J4*%
X103930000Y-112050000D03*
X103930000Y-106970000D03*
%TD*%
D19*
%TO.C,RS-3535MWAR6*%
X150500000Y-94150000D03*
X150500000Y-95250000D03*
X150500000Y-96350000D03*
X153500000Y-96350000D03*
X153500000Y-95250000D03*
X153500000Y-94150000D03*
%TD*%
D16*
%TO.C,R52*%
X149775000Y-112090000D03*
X148125000Y-112090000D03*
%TD*%
D12*
%TO.C,R58*%
X144250000Y-114285000D03*
X144250000Y-112635000D03*
%TD*%
D13*
%TO.C,R35*%
X185250000Y-93585000D03*
X185250000Y-95235000D03*
%TD*%
D19*
%TO.C,RS-3535MWAR4*%
X160500000Y-84900000D03*
X160500000Y-86000000D03*
X160500000Y-87100000D03*
X163500000Y-87100000D03*
X163500000Y-86000000D03*
X163500000Y-84900000D03*
%TD*%
%TO.C,RS-3535MWAR3*%
X150500000Y-103900000D03*
X150500000Y-105000000D03*
X150500000Y-106100000D03*
X153500000Y-106100000D03*
X153500000Y-105000000D03*
X153500000Y-103900000D03*
%TD*%
D20*
%TO.C,IC5*%
X147350000Y-77200000D03*
X148000000Y-77200000D03*
X148650000Y-77200000D03*
X148650000Y-75300000D03*
X148000000Y-75300000D03*
X147350000Y-75300000D03*
%TD*%
D19*
%TO.C,RS-3535MWAR5*%
X155500000Y-89600000D03*
X155500000Y-90700000D03*
X155500000Y-91800000D03*
X158500000Y-91800000D03*
X158500000Y-90700000D03*
X158500000Y-89600000D03*
%TD*%
D13*
%TO.C,R39*%
X130255000Y-125225000D03*
X130255000Y-126875000D03*
%TD*%
D10*
%TO.C,R42*%
X115835000Y-119360000D03*
X117485000Y-119360000D03*
%TD*%
%TO.C,R33*%
X181675000Y-108250000D03*
X183325000Y-108250000D03*
%TD*%
%TO.C,R51*%
X172170000Y-126450000D03*
X173820000Y-126450000D03*
%TD*%
D16*
%TO.C,R16*%
X170825000Y-105846150D03*
X169175000Y-105846150D03*
%TD*%
D19*
%TO.C,RS-3535MWAR2*%
X155500000Y-108900000D03*
X155500000Y-110000000D03*
X155500000Y-111100000D03*
X158500000Y-111100000D03*
X158500000Y-110000000D03*
X158500000Y-108900000D03*
%TD*%
D16*
%TO.C,R18*%
X170825000Y-89115390D03*
X169175000Y-89115390D03*
%TD*%
D10*
%TO.C,R22*%
X124175000Y-92153852D03*
X125825000Y-92153852D03*
%TD*%
D12*
%TO.C,R53*%
X148030000Y-116035000D03*
X148030000Y-114385000D03*
%TD*%
D14*
%TO.C,AO3403A6*%
X155030000Y-114195000D03*
X153130000Y-114195000D03*
X154107500Y-116085000D03*
%TD*%
D12*
%TO.C,R31*%
X187000000Y-107750000D03*
X187000000Y-106100000D03*
%TD*%
D16*
%TO.C,R2*%
X170825000Y-114211530D03*
X169175000Y-114211530D03*
%TD*%
D10*
%TO.C,R11*%
X124175000Y-100769234D03*
X125825000Y-100769234D03*
%TD*%
D18*
%TO.C,J6*%
X114000000Y-76000000D03*
X119080000Y-76000000D03*
%TD*%
D21*
%TO.C,Q7*%
X178255000Y-75950000D03*
X178255000Y-74050000D03*
X175745000Y-75000000D03*
%TD*%
D10*
%TO.C,R46*%
X176680000Y-77800000D03*
X178330000Y-77800000D03*
%TD*%
D16*
%TO.C,R17*%
X170825000Y-83538470D03*
X169175000Y-83538470D03*
%TD*%
D10*
%TO.C,R25*%
X124175000Y-109384616D03*
X125825000Y-109384616D03*
%TD*%
D22*
%TO.C,RS-3535MWAR11*%
X138500000Y-111100000D03*
X138500000Y-110000000D03*
X138500000Y-108900000D03*
X135500000Y-108900000D03*
X135500000Y-110000000D03*
X135500000Y-111100000D03*
%TD*%
D16*
%TO.C,R37*%
X127255000Y-122500000D03*
X125605000Y-122500000D03*
%TD*%
D15*
%TO.C,H2*%
X100500000Y-72500000D03*
%TD*%
D17*
%TO.C,Q1*%
X183745000Y-115550000D03*
X183745000Y-117450000D03*
X186255000Y-116500000D03*
%TD*%
D16*
%TO.C,R19*%
X170825000Y-94692310D03*
X169175000Y-94692310D03*
%TD*%
D23*
%TO.C,C2*%
X107250000Y-100250000D03*
X107250000Y-99290000D03*
%TD*%
D16*
%TO.C,R49*%
X169070000Y-121950000D03*
X167420000Y-121950000D03*
%TD*%
%TO.C,R54*%
X153525000Y-112040000D03*
X151875000Y-112040000D03*
%TD*%
D10*
%TO.C,R10*%
X124175000Y-83538470D03*
X125825000Y-83538470D03*
%TD*%
D24*
%TO.C,C1*%
X107250000Y-96270000D03*
X107250000Y-97230000D03*
%TD*%
D25*
%TO.C,J5*%
X103500000Y-85420000D03*
D26*
X103500000Y-87960000D03*
X103500000Y-90500000D03*
%TD*%
D27*
%TO.C,IC6*%
X162550000Y-74775000D03*
X162550000Y-75425000D03*
X162550000Y-76075000D03*
X162550000Y-76725000D03*
X165950000Y-76725000D03*
X165950000Y-76075000D03*
X165950000Y-75425000D03*
X165950000Y-74775000D03*
%TD*%
D11*
%TO.C,AO3403A3*%
X115290000Y-106755000D03*
X117190000Y-106755000D03*
X116212500Y-104865000D03*
%TD*%
D28*
%TO.C,IC7*%
X109750000Y-95900000D03*
X109750000Y-98200000D03*
X109750000Y-100500000D03*
D29*
X116050000Y-98200000D03*
%TD*%
D19*
%TO.C,RS-3535MWAR13*%
X145500000Y-98900000D03*
X145500000Y-100000000D03*
X145500000Y-101100000D03*
X148500000Y-101100000D03*
X148500000Y-100000000D03*
X148500000Y-98900000D03*
%TD*%
D10*
%TO.C,R26*%
X124175000Y-115128204D03*
X125825000Y-115128204D03*
%TD*%
D12*
%TO.C,R50*%
X164210000Y-124235000D03*
X164210000Y-122585000D03*
%TD*%
D16*
%TO.C,R3*%
X170825000Y-108634610D03*
X169175000Y-108634610D03*
%TD*%
D30*
%TO.C,IC1*%
X177200000Y-95612500D03*
X176250000Y-95612500D03*
X175300000Y-95612500D03*
X175300000Y-97887500D03*
X176250000Y-97887500D03*
X177200000Y-97887500D03*
%TD*%
D15*
%TO.C,H1*%
X193500000Y-72500000D03*
%TD*%
D10*
%TO.C,R55*%
X156735000Y-116730000D03*
X158385000Y-116730000D03*
%TD*%
D17*
%TO.C,Q5*%
X110745000Y-118050000D03*
X110745000Y-119950000D03*
X113255000Y-119000000D03*
%TD*%
D16*
%TO.C,R20*%
X170825000Y-100269230D03*
X169175000Y-100269230D03*
%TD*%
%TO.C,R44*%
X112685000Y-111630000D03*
X111035000Y-111630000D03*
%TD*%
D17*
%TO.C,Q4*%
X125000000Y-124850000D03*
X125000000Y-126750000D03*
X127510000Y-125800000D03*
%TD*%
D10*
%TO.C,R9*%
X124175000Y-89282058D03*
X125825000Y-89282058D03*
%TD*%
%TO.C,R32*%
X185995000Y-103800000D03*
X187645000Y-103800000D03*
%TD*%
%TO.C,R61*%
X99515000Y-95050000D03*
X101165000Y-95050000D03*
%TD*%
D19*
%TO.C,RS-3535MWAR1*%
X160500000Y-113900000D03*
X160500000Y-115000000D03*
X160500000Y-116100000D03*
X163500000Y-116100000D03*
X163500000Y-115000000D03*
X163500000Y-113900000D03*
%TD*%
D14*
%TO.C,AO3403A4*%
X173660000Y-75625000D03*
X171760000Y-75625000D03*
X172737500Y-77515000D03*
%TD*%
D18*
%TO.C,J3*%
X141420000Y-123870000D03*
X136340000Y-123870000D03*
%TD*%
D22*
%TO.C,RS-3535MWAR8*%
X138500000Y-91800000D03*
X138500000Y-90700000D03*
X138500000Y-89600000D03*
X135500000Y-89600000D03*
X135500000Y-90700000D03*
X135500000Y-91800000D03*
%TD*%
D14*
%TO.C,Q10*%
X139000000Y-113035000D03*
X137100000Y-113035000D03*
X138077500Y-114925000D03*
%TD*%
D12*
%TO.C,R38*%
X122250000Y-126825000D03*
X122250000Y-125175000D03*
%TD*%
D21*
%TO.C,Q3*%
X183115000Y-95480000D03*
X183115000Y-93580000D03*
X180605000Y-94530000D03*
%TD*%
D10*
%TO.C,R13*%
X124175000Y-112256410D03*
X125825000Y-112256410D03*
%TD*%
D22*
%TO.C,RS-3535MWAR7*%
X143500000Y-96350000D03*
X143500000Y-95250000D03*
X143500000Y-94150000D03*
X140500000Y-94150000D03*
X140500000Y-95250000D03*
X140500000Y-96350000D03*
%TD*%
D31*
%TO.C,AO3403A8*%
X103575000Y-101850000D03*
X103575000Y-99950000D03*
X101685000Y-100927500D03*
%TD*%
D13*
%TO.C,R47*%
X180255000Y-74225000D03*
X180255000Y-75875000D03*
%TD*%
D32*
%TO.C,IC3*%
X155750000Y-77650000D03*
X156250000Y-77650000D03*
X156750000Y-77650000D03*
X157250000Y-77650000D03*
X157250000Y-74850000D03*
X156750000Y-74850000D03*
X156250000Y-74850000D03*
X155750000Y-74850000D03*
%TD*%
D33*
%TO.C,IC4*%
X138560000Y-73288000D03*
X137290000Y-73288000D03*
X136020000Y-73288000D03*
X134750000Y-73288000D03*
X133480000Y-73288000D03*
X132210000Y-73288000D03*
X130940000Y-73288000D03*
X130940000Y-78712000D03*
X132210000Y-78712000D03*
X133480000Y-78712000D03*
X134750000Y-78712000D03*
X136020000Y-78712000D03*
X137290000Y-78712000D03*
X138560000Y-78712000D03*
%TD*%
D21*
%TO.C,Q2*%
X183750000Y-105750000D03*
X183750000Y-103850000D03*
X181240000Y-104800000D03*
%TD*%
D22*
%TO.C,RS-3535MWAR14*%
X149000000Y-122100000D03*
X149000000Y-121000000D03*
X149000000Y-119900000D03*
X146000000Y-119900000D03*
X146000000Y-121000000D03*
X146000000Y-122100000D03*
%TD*%
D14*
%TO.C,Q9*%
X151760000Y-114175000D03*
X149860000Y-114175000D03*
X150837500Y-116065000D03*
%TD*%
D12*
%TO.C,R41*%
X108410000Y-119610000D03*
X108410000Y-117960000D03*
%TD*%
D10*
%TO.C,R45*%
X115425000Y-109500000D03*
X117075000Y-109500000D03*
%TD*%
D34*
%TO.C,J1*%
X191580000Y-92800000D03*
D35*
X191580000Y-90300000D03*
X191580000Y-87800000D03*
X191580000Y-85300000D03*
%TD*%
D12*
%TO.C,R57*%
X135790000Y-116440000D03*
X135790000Y-114790000D03*
%TD*%
D10*
%TO.C,R21*%
X124175000Y-97897440D03*
X125825000Y-97897440D03*
%TD*%
D18*
%TO.C,J2*%
X159820000Y-123780000D03*
X154740000Y-123780000D03*
%TD*%
D22*
%TO.C,RS-3535MWAR12*%
X133500000Y-116100000D03*
X133500000Y-115000000D03*
X133500000Y-113900000D03*
X130500000Y-113900000D03*
X130500000Y-115000000D03*
X130500000Y-116100000D03*
%TD*%
D16*
%TO.C,R5*%
X170825000Y-91903850D03*
X169175000Y-91903850D03*
%TD*%
D10*
%TO.C,R1*%
X124175000Y-118000000D03*
X125825000Y-118000000D03*
%TD*%
D16*
%TO.C,R15*%
X170825000Y-111423070D03*
X169175000Y-111423070D03*
%TD*%
D15*
%TO.C,H4*%
X100500000Y-127500000D03*
%TD*%
D16*
%TO.C,R4*%
X170825000Y-86326930D03*
X169175000Y-86326930D03*
%TD*%
D14*
%TO.C,Q11*%
X102870000Y-97155000D03*
X100970000Y-97155000D03*
X101947500Y-99045000D03*
%TD*%
D16*
%TO.C,R56*%
X142415000Y-111060000D03*
X140765000Y-111060000D03*
%TD*%
D12*
%TO.C,R60*%
X104250000Y-96415000D03*
X104250000Y-94765000D03*
%TD*%
D17*
%TO.C,Q6*%
X110745000Y-107550000D03*
X110745000Y-109450000D03*
X113255000Y-108500000D03*
%TD*%
D16*
%TO.C,R30*%
X185825000Y-119250000D03*
X184175000Y-119250000D03*
%TD*%
%TO.C,R40*%
X112660000Y-115610000D03*
X111010000Y-115610000D03*
%TD*%
D10*
%TO.C,R24*%
X124175000Y-103641028D03*
X125825000Y-103641028D03*
%TD*%
D11*
%TO.C,AO3403A2*%
X115760000Y-117035000D03*
X117660000Y-117035000D03*
X116682500Y-115145000D03*
%TD*%
D30*
%TO.C,IC2*%
X185700000Y-85112500D03*
X184750000Y-85112500D03*
X183800000Y-85112500D03*
X183800000Y-87387500D03*
X184750000Y-87387500D03*
X185700000Y-87387500D03*
%TD*%
D10*
%TO.C,R59*%
X140825000Y-116510000D03*
X142475000Y-116510000D03*
%TD*%
D16*
%TO.C,R7*%
X170825000Y-103057690D03*
X169175000Y-103057690D03*
%TD*%
D22*
%TO.C,RS-3535MWAR9*%
X133500000Y-87100000D03*
X133500000Y-86000000D03*
X133500000Y-84900000D03*
X130500000Y-84900000D03*
X130500000Y-86000000D03*
X130500000Y-87100000D03*
%TD*%
D16*
%TO.C,R6*%
X170825000Y-97480770D03*
X169175000Y-97480770D03*
%TD*%
D22*
%TO.C,RS-3535MWAR10*%
X143500000Y-106100000D03*
X143500000Y-105000000D03*
X143500000Y-103900000D03*
X140500000Y-103900000D03*
X140500000Y-105000000D03*
X140500000Y-106100000D03*
%TD*%
D10*
%TO.C,R8*%
X124175000Y-95025646D03*
X125825000Y-95025646D03*
%TD*%
D12*
%TO.C,R62*%
X105610000Y-101595000D03*
X105610000Y-99945000D03*
%TD*%
M02*
